<mxfile host="app.diagrams.net" agent="Mozilla/5.0 (Windows NT 10.0; Win64; x64) AppleWebKit/537.36 (KHTML, like Gecko) Chrome/130.0.0.0 Safari/537.36" version="24.8.3">
  <diagram name="PÃ¡gina-1" id="VeDtwDkwxdLUEfM6ZheZ">
    <mxGraphModel dx="2206" dy="1258" grid="1" gridSize="10" guides="1" tooltips="1" connect="1" arrows="1" fold="1" page="1" pageScale="1" pageWidth="827" pageHeight="1169" math="0" shadow="0">
      <root>
        <mxCell id="0" />
        <mxCell id="1" parent="0" />
        <mxCell id="VvckBpr95uDO0CKF_p7v-21" value="Cliente       " style="swimlane;fontStyle=1;align=center;verticalAlign=top;childLayout=stackLayout;horizontal=1;startSize=26;horizontalStack=0;resizeParent=1;resizeParentMax=0;resizeLast=0;collapsible=1;marginBottom=0;whiteSpace=wrap;html=1;" vertex="1" parent="1">
          <mxGeometry x="300" y="320" width="230" height="216" as="geometry" />
        </mxCell>
        <mxCell id="VvckBpr95uDO0CKF_p7v-28" value="&lt;span class=&quot;hljs-operator&quot;&gt;+&lt;/span&gt; id: &lt;span class=&quot;hljs-type&quot;&gt;int&lt;/span&gt;" style="text;strokeColor=none;fillColor=none;align=left;verticalAlign=top;spacingLeft=4;spacingRight=4;overflow=hidden;rotatable=0;points=[[0,0.5],[1,0.5]];portConstraint=eastwest;whiteSpace=wrap;html=1;" vertex="1" parent="VvckBpr95uDO0CKF_p7v-21">
          <mxGeometry y="26" width="230" height="26" as="geometry" />
        </mxCell>
        <mxCell id="VvckBpr95uDO0CKF_p7v-26" value="&lt;span class=&quot;hljs-operator&quot;&gt;+&lt;/span&gt; nome: String" style="text;strokeColor=none;fillColor=none;align=left;verticalAlign=top;spacingLeft=4;spacingRight=4;overflow=hidden;rotatable=0;points=[[0,0.5],[1,0.5]];portConstraint=eastwest;whiteSpace=wrap;html=1;" vertex="1" parent="VvckBpr95uDO0CKF_p7v-21">
          <mxGeometry y="52" width="230" height="26" as="geometry" />
        </mxCell>
        <mxCell id="VvckBpr95uDO0CKF_p7v-27" value="&lt;span class=&quot;hljs-operator&quot;&gt;+&lt;/span&gt; email: String" style="text;strokeColor=none;fillColor=none;align=left;verticalAlign=top;spacingLeft=4;spacingRight=4;overflow=hidden;rotatable=0;points=[[0,0.5],[1,0.5]];portConstraint=eastwest;whiteSpace=wrap;html=1;" vertex="1" parent="VvckBpr95uDO0CKF_p7v-21">
          <mxGeometry y="78" width="230" height="26" as="geometry" />
        </mxCell>
        <mxCell id="VvckBpr95uDO0CKF_p7v-25" value="+ carrinho: Carrinho" style="text;strokeColor=none;fillColor=none;align=left;verticalAlign=top;spacingLeft=4;spacingRight=4;overflow=hidden;rotatable=0;points=[[0,0.5],[1,0.5]];portConstraint=eastwest;whiteSpace=wrap;html=1;" vertex="1" parent="VvckBpr95uDO0CKF_p7v-21">
          <mxGeometry y="104" width="230" height="26" as="geometry" />
        </mxCell>
        <mxCell id="VvckBpr95uDO0CKF_p7v-23" value="" style="line;strokeWidth=1;fillColor=none;align=left;verticalAlign=middle;spacingTop=-1;spacingLeft=3;spacingRight=3;rotatable=0;labelPosition=right;points=[];portConstraint=eastwest;strokeColor=inherit;" vertex="1" parent="VvckBpr95uDO0CKF_p7v-21">
          <mxGeometry y="130" width="230" height="8" as="geometry" />
        </mxCell>
        <mxCell id="VvckBpr95uDO0CKF_p7v-24" value="+receberNotificacao(produto: Produto)" style="text;strokeColor=none;fillColor=none;align=left;verticalAlign=top;spacingLeft=4;spacingRight=4;overflow=hidden;rotatable=0;points=[[0,0.5],[1,0.5]];portConstraint=eastwest;whiteSpace=wrap;html=1;" vertex="1" parent="VvckBpr95uDO0CKF_p7v-21">
          <mxGeometry y="138" width="230" height="26" as="geometry" />
        </mxCell>
        <mxCell id="VvckBpr95uDO0CKF_p7v-94" value="+adicionarAoCarrinho(produto: Produto)" style="text;strokeColor=none;fillColor=none;align=left;verticalAlign=top;spacingLeft=4;spacingRight=4;overflow=hidden;rotatable=0;points=[[0,0.5],[1,0.5]];portConstraint=eastwest;whiteSpace=wrap;html=1;" vertex="1" parent="VvckBpr95uDO0CKF_p7v-21">
          <mxGeometry y="164" width="230" height="26" as="geometry" />
        </mxCell>
        <mxCell id="VvckBpr95uDO0CKF_p7v-96" value="+finalizarCompra()" style="text;strokeColor=none;fillColor=none;align=left;verticalAlign=top;spacingLeft=4;spacingRight=4;overflow=hidden;rotatable=0;points=[[0,0.5],[1,0.5]];portConstraint=eastwest;whiteSpace=wrap;html=1;" vertex="1" parent="VvckBpr95uDO0CKF_p7v-21">
          <mxGeometry y="190" width="230" height="26" as="geometry" />
        </mxCell>
        <mxCell id="VvckBpr95uDO0CKF_p7v-29" value="Produto             " style="swimlane;fontStyle=1;align=center;verticalAlign=top;childLayout=stackLayout;horizontal=1;startSize=26;horizontalStack=0;resizeParent=1;resizeParentMax=0;resizeLast=0;collapsible=1;marginBottom=0;whiteSpace=wrap;html=1;" vertex="1" parent="1">
          <mxGeometry x="170" y="760" width="110" height="216" as="geometry" />
        </mxCell>
        <mxCell id="VvckBpr95uDO0CKF_p7v-30" value="&lt;span class=&quot;hljs-operator&quot;&gt;+&lt;/span&gt; id: &lt;span class=&quot;hljs-type&quot;&gt;int&lt;/span&gt;" style="text;strokeColor=none;fillColor=none;align=left;verticalAlign=top;spacingLeft=4;spacingRight=4;overflow=hidden;rotatable=0;points=[[0,0.5],[1,0.5]];portConstraint=eastwest;whiteSpace=wrap;html=1;" vertex="1" parent="VvckBpr95uDO0CKF_p7v-29">
          <mxGeometry y="26" width="110" height="26" as="geometry" />
        </mxCell>
        <mxCell id="VvckBpr95uDO0CKF_p7v-31" value="&lt;span class=&quot;hljs-operator&quot;&gt;+&lt;/span&gt; nome: String" style="text;strokeColor=none;fillColor=none;align=left;verticalAlign=top;spacingLeft=4;spacingRight=4;overflow=hidden;rotatable=0;points=[[0,0.5],[1,0.5]];portConstraint=eastwest;whiteSpace=wrap;html=1;" vertex="1" parent="VvckBpr95uDO0CKF_p7v-29">
          <mxGeometry y="52" width="110" height="26" as="geometry" />
        </mxCell>
        <mxCell id="VvckBpr95uDO0CKF_p7v-32" value="&lt;span class=&quot;hljs-operator&quot;&gt;+&lt;/span&gt; descricao: String" style="text;strokeColor=none;fillColor=none;align=left;verticalAlign=top;spacingLeft=4;spacingRight=4;overflow=hidden;rotatable=0;points=[[0,0.5],[1,0.5]];portConstraint=eastwest;whiteSpace=wrap;html=1;" vertex="1" parent="VvckBpr95uDO0CKF_p7v-29">
          <mxGeometry y="78" width="110" height="26" as="geometry" />
        </mxCell>
        <mxCell id="VvckBpr95uDO0CKF_p7v-33" value="&lt;span class=&quot;hljs-operator&quot;&gt;+&lt;/span&gt; preco: &lt;span class=&quot;hljs-keyword&quot;&gt;double&lt;/span&gt;" style="text;strokeColor=none;fillColor=none;align=left;verticalAlign=top;spacingLeft=4;spacingRight=4;overflow=hidden;rotatable=0;points=[[0,0.5],[1,0.5]];portConstraint=eastwest;whiteSpace=wrap;html=1;" vertex="1" parent="VvckBpr95uDO0CKF_p7v-29">
          <mxGeometry y="104" width="110" height="26" as="geometry" />
        </mxCell>
        <mxCell id="VvckBpr95uDO0CKF_p7v-37" value="&lt;span class=&quot;hljs-operator&quot;&gt;+&lt;/span&gt; estoque: &lt;span class=&quot;hljs-type&quot;&gt;int&lt;/span&gt;" style="text;strokeColor=none;fillColor=none;align=left;verticalAlign=top;spacingLeft=4;spacingRight=4;overflow=hidden;rotatable=0;points=[[0,0.5],[1,0.5]];portConstraint=eastwest;whiteSpace=wrap;html=1;" vertex="1" parent="VvckBpr95uDO0CKF_p7v-29">
          <mxGeometry y="130" width="110" height="26" as="geometry" />
        </mxCell>
        <mxCell id="VvckBpr95uDO0CKF_p7v-34" value="" style="line;strokeWidth=1;fillColor=none;align=left;verticalAlign=middle;spacingTop=-1;spacingLeft=3;spacingRight=3;rotatable=0;labelPosition=right;points=[];portConstraint=eastwest;strokeColor=inherit;" vertex="1" parent="VvckBpr95uDO0CKF_p7v-29">
          <mxGeometry y="156" width="110" height="8" as="geometry" />
        </mxCell>
        <mxCell id="VvckBpr95uDO0CKF_p7v-35" value="&lt;span class=&quot;hljs-operator&quot;&gt;+&lt;/span&gt; getPreco()" style="text;strokeColor=none;fillColor=none;align=left;verticalAlign=top;spacingLeft=4;spacingRight=4;overflow=hidden;rotatable=0;points=[[0,0.5],[1,0.5]];portConstraint=eastwest;whiteSpace=wrap;html=1;" vertex="1" parent="VvckBpr95uDO0CKF_p7v-29">
          <mxGeometry y="164" width="110" height="26" as="geometry" />
        </mxCell>
        <mxCell id="VvckBpr95uDO0CKF_p7v-36" value="&lt;span class=&quot;hljs-operator&quot;&gt;+&lt;/span&gt; reduzirEstoque()" style="text;strokeColor=none;fillColor=none;align=left;verticalAlign=top;spacingLeft=4;spacingRight=4;overflow=hidden;rotatable=0;points=[[0,0.5],[1,0.5]];portConstraint=eastwest;whiteSpace=wrap;html=1;" vertex="1" parent="VvckBpr95uDO0CKF_p7v-29">
          <mxGeometry y="190" width="110" height="26" as="geometry" />
        </mxCell>
        <mxCell id="VvckBpr95uDO0CKF_p7v-38" value="Carrinho" style="swimlane;fontStyle=1;align=center;verticalAlign=top;childLayout=stackLayout;horizontal=1;startSize=26;horizontalStack=0;resizeParent=1;resizeParentMax=0;resizeLast=0;collapsible=1;marginBottom=0;whiteSpace=wrap;html=1;" vertex="1" parent="1">
          <mxGeometry x="150" y="560" width="150" height="138" as="geometry" />
        </mxCell>
        <mxCell id="VvckBpr95uDO0CKF_p7v-45" value="+ produtos: List&amp;lt;Produto&amp;gt;" style="text;strokeColor=none;fillColor=none;align=left;verticalAlign=top;spacingLeft=4;spacingRight=4;overflow=hidden;rotatable=0;points=[[0,0.5],[1,0.5]];portConstraint=eastwest;whiteSpace=wrap;html=1;" vertex="1" parent="VvckBpr95uDO0CKF_p7v-38">
          <mxGeometry y="26" width="150" height="26" as="geometry" />
        </mxCell>
        <mxCell id="VvckBpr95uDO0CKF_p7v-44" value="" style="line;strokeWidth=1;fillColor=none;align=left;verticalAlign=middle;spacingTop=-1;spacingLeft=3;spacingRight=3;rotatable=0;labelPosition=right;points=[];portConstraint=eastwest;strokeColor=inherit;" vertex="1" parent="VvckBpr95uDO0CKF_p7v-38">
          <mxGeometry y="52" width="150" height="8" as="geometry" />
        </mxCell>
        <mxCell id="VvckBpr95uDO0CKF_p7v-43" value="+ calcularTotal(): double" style="text;strokeColor=none;fillColor=none;align=left;verticalAlign=top;spacingLeft=4;spacingRight=4;overflow=hidden;rotatable=0;points=[[0,0.5],[1,0.5]];portConstraint=eastwest;whiteSpace=wrap;html=1;" vertex="1" parent="VvckBpr95uDO0CKF_p7v-38">
          <mxGeometry y="60" width="150" height="26" as="geometry" />
        </mxCell>
        <mxCell id="VvckBpr95uDO0CKF_p7v-97" value="+gerarPedido() : Pedido" style="text;strokeColor=none;fillColor=none;align=left;verticalAlign=top;spacingLeft=4;spacingRight=4;overflow=hidden;rotatable=0;points=[[0,0.5],[1,0.5]];portConstraint=eastwest;whiteSpace=wrap;html=1;" vertex="1" parent="VvckBpr95uDO0CKF_p7v-38">
          <mxGeometry y="86" width="150" height="26" as="geometry" />
        </mxCell>
        <mxCell id="VvckBpr95uDO0CKF_p7v-98" value="+limparCarrinho()" style="text;strokeColor=none;fillColor=none;align=left;verticalAlign=top;spacingLeft=4;spacingRight=4;overflow=hidden;rotatable=0;points=[[0,0.5],[1,0.5]];portConstraint=eastwest;whiteSpace=wrap;html=1;" vertex="1" parent="VvckBpr95uDO0CKF_p7v-38">
          <mxGeometry y="112" width="150" height="26" as="geometry" />
        </mxCell>
        <mxCell id="VvckBpr95uDO0CKF_p7v-47" value="&lt;span style=&quot;font-family: &amp;quot;gg mono&amp;quot;, &amp;quot;Source Code Pro&amp;quot;, Consolas, &amp;quot;Andale Mono WT&amp;quot;, &amp;quot;Andale Mono&amp;quot;, &amp;quot;Lucida Console&amp;quot;, &amp;quot;Lucida Sans Typewriter&amp;quot;, &amp;quot;DejaVu Sans Mono&amp;quot;, &amp;quot;Bitstream Vera Sans Mono&amp;quot;, &amp;quot;Liberation Mono&amp;quot;, &amp;quot;Nimbus Mono L&amp;quot;, Monaco, &amp;quot;Courier New&amp;quot;, Courier, monospace; font-size: 14px; font-weight: 400; text-align: left; white-space: pre;&quot;&gt;NotificadorDeProdutos&lt;/span&gt;" style="swimlane;fontStyle=1;align=center;verticalAlign=top;childLayout=stackLayout;horizontal=1;startSize=26;horizontalStack=0;resizeParent=1;resizeParentMax=0;resizeLast=0;collapsible=1;marginBottom=0;html=1;fillColor=#FFFFFF;fontColor=default;whiteSpace=wrap;labelBackgroundColor=default;" vertex="1" parent="1">
          <mxGeometry x="266" y="10" width="295" height="138" as="geometry" />
        </mxCell>
        <mxCell id="VvckBpr95uDO0CKF_p7v-50" value="- observadores: List&amp;lt;ClienteObserver&amp;gt;" style="text;strokeColor=none;fillColor=none;align=left;verticalAlign=top;spacingLeft=4;spacingRight=4;overflow=hidden;rotatable=0;points=[[0,0.5],[1,0.5]];portConstraint=eastwest;whiteSpace=wrap;html=1;" vertex="1" parent="VvckBpr95uDO0CKF_p7v-47">
          <mxGeometry y="26" width="295" height="26" as="geometry" />
        </mxCell>
        <mxCell id="VvckBpr95uDO0CKF_p7v-49" value="" style="line;strokeWidth=1;fillColor=none;align=left;verticalAlign=middle;spacingTop=-1;spacingLeft=3;spacingRight=3;rotatable=0;labelPosition=right;points=[];portConstraint=eastwest;strokeColor=inherit;" vertex="1" parent="VvckBpr95uDO0CKF_p7v-47">
          <mxGeometry y="52" width="295" height="8" as="geometry" />
        </mxCell>
        <mxCell id="VvckBpr95uDO0CKF_p7v-48" value="+ registrarObservador(cliente: ClienteObserver): void" style="text;strokeColor=none;fillColor=none;align=left;verticalAlign=top;spacingLeft=4;spacingRight=4;overflow=hidden;rotatable=0;points=[[0,0.5],[1,0.5]];portConstraint=eastwest;whiteSpace=wrap;html=1;" vertex="1" parent="VvckBpr95uDO0CKF_p7v-47">
          <mxGeometry y="60" width="295" height="26" as="geometry" />
        </mxCell>
        <mxCell id="VvckBpr95uDO0CKF_p7v-51" value="+ removerObservador(cliente: ClienteObserver): void" style="text;strokeColor=none;fillColor=none;align=left;verticalAlign=top;spacingLeft=4;spacingRight=4;overflow=hidden;rotatable=0;points=[[0,0.5],[1,0.5]];portConstraint=eastwest;whiteSpace=wrap;html=1;" vertex="1" parent="VvckBpr95uDO0CKF_p7v-47">
          <mxGeometry y="86" width="295" height="26" as="geometry" />
        </mxCell>
        <mxCell id="VvckBpr95uDO0CKF_p7v-52" value="+ notificar(produto: Produto): void" style="text;strokeColor=none;fillColor=none;align=left;verticalAlign=top;spacingLeft=4;spacingRight=4;overflow=hidden;rotatable=0;points=[[0,0.5],[1,0.5]];portConstraint=eastwest;whiteSpace=wrap;html=1;" vertex="1" parent="VvckBpr95uDO0CKF_p7v-47">
          <mxGeometry y="112" width="295" height="26" as="geometry" />
        </mxCell>
        <mxCell id="VvckBpr95uDO0CKF_p7v-53" value="&amp;lt;&amp;lt;interface&amp;gt;&amp;gt;&lt;div&gt;&amp;nbsp; Cliente Observer&lt;/div&gt;" style="swimlane;fontStyle=1;align=center;verticalAlign=top;childLayout=stackLayout;horizontal=1;startSize=40;horizontalStack=0;resizeParent=1;resizeParentMax=0;resizeLast=0;collapsible=1;marginBottom=0;whiteSpace=wrap;html=1;" vertex="1" parent="1">
          <mxGeometry x="284" y="200" width="260" height="74" as="geometry" />
        </mxCell>
        <mxCell id="VvckBpr95uDO0CKF_p7v-55" value="" style="line;strokeWidth=1;fillColor=none;align=left;verticalAlign=middle;spacingTop=-1;spacingLeft=3;spacingRight=3;rotatable=0;labelPosition=right;points=[];portConstraint=eastwest;strokeColor=inherit;" vertex="1" parent="VvckBpr95uDO0CKF_p7v-53">
          <mxGeometry y="40" width="260" height="8" as="geometry" />
        </mxCell>
        <mxCell id="VvckBpr95uDO0CKF_p7v-54" value="+ receberNotificacao(produto: Produto): void" style="text;strokeColor=none;fillColor=none;align=left;verticalAlign=top;spacingLeft=4;spacingRight=4;overflow=hidden;rotatable=0;points=[[0,0.5],[1,0.5]];portConstraint=eastwest;whiteSpace=wrap;html=1;" vertex="1" parent="VvckBpr95uDO0CKF_p7v-53">
          <mxGeometry y="48" width="260" height="26" as="geometry" />
        </mxCell>
        <mxCell id="VvckBpr95uDO0CKF_p7v-57" value="Pedido                   " style="swimlane;fontStyle=1;align=center;verticalAlign=top;childLayout=stackLayout;horizontal=1;startSize=26;horizontalStack=0;resizeParent=1;resizeParentMax=0;resizeLast=0;collapsible=1;marginBottom=0;whiteSpace=wrap;html=1;" vertex="1" parent="1">
          <mxGeometry x="350" y="820" width="330" height="216" as="geometry" />
        </mxCell>
        <mxCell id="VvckBpr95uDO0CKF_p7v-58" value="- id: &lt;span class=&quot;hljs-type&quot;&gt;int&lt;/span&gt;" style="text;strokeColor=none;fillColor=none;align=left;verticalAlign=top;spacingLeft=4;spacingRight=4;overflow=hidden;rotatable=0;points=[[0,0.5],[1,0.5]];portConstraint=eastwest;whiteSpace=wrap;html=1;" vertex="1" parent="VvckBpr95uDO0CKF_p7v-57">
          <mxGeometry y="26" width="330" height="26" as="geometry" />
        </mxCell>
        <mxCell id="VvckBpr95uDO0CKF_p7v-64" value="- valorTotal: float" style="text;strokeColor=none;fillColor=none;align=left;verticalAlign=top;spacingLeft=4;spacingRight=4;overflow=hidden;rotatable=0;points=[[0,0.5],[1,0.5]];portConstraint=eastwest;whiteSpace=wrap;html=1;" vertex="1" parent="VvckBpr95uDO0CKF_p7v-57">
          <mxGeometry y="52" width="330" height="26" as="geometry" />
        </mxCell>
        <mxCell id="VvckBpr95uDO0CKF_p7v-61" value="- status: String" style="text;strokeColor=none;fillColor=none;align=left;verticalAlign=top;spacingLeft=4;spacingRight=4;overflow=hidden;rotatable=0;points=[[0,0.5],[1,0.5]];portConstraint=eastwest;whiteSpace=wrap;html=1;" vertex="1" parent="VvckBpr95uDO0CKF_p7v-57">
          <mxGeometry y="78" width="330" height="26" as="geometry" />
        </mxCell>
        <mxCell id="VvckBpr95uDO0CKF_p7v-62" value="- estrategiaPagamento: PagamentoStrategy" style="text;strokeColor=none;fillColor=none;align=left;verticalAlign=top;spacingLeft=4;spacingRight=4;overflow=hidden;rotatable=0;points=[[0,0.5],[1,0.5]];portConstraint=eastwest;whiteSpace=wrap;html=1;" vertex="1" parent="VvckBpr95uDO0CKF_p7v-57">
          <mxGeometry y="104" width="330" height="26" as="geometry" />
        </mxCell>
        <mxCell id="VvckBpr95uDO0CKF_p7v-63" value="" style="line;strokeWidth=1;fillColor=none;align=left;verticalAlign=middle;spacingTop=-1;spacingLeft=3;spacingRight=3;rotatable=0;labelPosition=right;points=[];portConstraint=eastwest;strokeColor=inherit;" vertex="1" parent="VvckBpr95uDO0CKF_p7v-57">
          <mxGeometry y="130" width="330" height="8" as="geometry" />
        </mxCell>
        <mxCell id="VvckBpr95uDO0CKF_p7v-76" value="+ setEstrategiaPagamento(estrategia: PagamentoStrategy)" style="text;strokeColor=none;fillColor=none;align=left;verticalAlign=top;spacingLeft=4;spacingRight=4;overflow=hidden;rotatable=0;points=[[0,0.5],[1,0.5]];portConstraint=eastwest;whiteSpace=wrap;html=1;" vertex="1" parent="VvckBpr95uDO0CKF_p7v-57">
          <mxGeometry y="138" width="330" height="26" as="geometry" />
        </mxCell>
        <mxCell id="VvckBpr95uDO0CKF_p7v-78" value="+ processarPagamento()&amp;nbsp;" style="text;strokeColor=none;fillColor=none;align=left;verticalAlign=top;spacingLeft=4;spacingRight=4;overflow=hidden;rotatable=0;points=[[0,0.5],[1,0.5]];portConstraint=eastwest;whiteSpace=wrap;html=1;" vertex="1" parent="VvckBpr95uDO0CKF_p7v-57">
          <mxGeometry y="164" width="330" height="26" as="geometry" />
        </mxCell>
        <mxCell id="VvckBpr95uDO0CKF_p7v-77" value="&amp;nbsp;+ atualizarStatus(novoStatus: String)&amp;nbsp;" style="text;strokeColor=none;fillColor=none;align=left;verticalAlign=top;spacingLeft=4;spacingRight=4;overflow=hidden;rotatable=0;points=[[0,0.5],[1,0.5]];portConstraint=eastwest;whiteSpace=wrap;html=1;" vertex="1" parent="VvckBpr95uDO0CKF_p7v-57">
          <mxGeometry y="190" width="330" height="26" as="geometry" />
        </mxCell>
        <mxCell id="VvckBpr95uDO0CKF_p7v-71" value="&lt;div&gt;&amp;lt;&amp;lt;interface&amp;gt;&amp;gt;&lt;/div&gt;&lt;div&gt;&lt;span style=&quot;background-color: initial;&quot;&gt;PagamentoStrategy&lt;/span&gt;&lt;/div&gt;" style="swimlane;fontStyle=1;align=center;verticalAlign=top;childLayout=stackLayout;horizontal=1;startSize=40;horizontalStack=0;resizeParent=1;resizeParentMax=0;resizeLast=0;collapsible=1;marginBottom=0;whiteSpace=wrap;html=1;" vertex="1" parent="1">
          <mxGeometry x="350" y="1090" width="330" height="74" as="geometry" />
        </mxCell>
        <mxCell id="VvckBpr95uDO0CKF_p7v-74" value="" style="line;strokeWidth=1;fillColor=none;align=left;verticalAlign=middle;spacingTop=-1;spacingLeft=3;spacingRight=3;rotatable=0;labelPosition=right;points=[];portConstraint=eastwest;strokeColor=inherit;" vertex="1" parent="VvckBpr95uDO0CKF_p7v-71">
          <mxGeometry y="40" width="330" height="8" as="geometry" />
        </mxCell>
        <mxCell id="VvckBpr95uDO0CKF_p7v-75" value="+ pagar(valor: float)" style="text;strokeColor=none;fillColor=none;align=left;verticalAlign=top;spacingLeft=4;spacingRight=4;overflow=hidden;rotatable=0;points=[[0,0.5],[1,0.5]];portConstraint=eastwest;whiteSpace=wrap;html=1;" vertex="1" parent="VvckBpr95uDO0CKF_p7v-71">
          <mxGeometry y="48" width="330" height="26" as="geometry" />
        </mxCell>
        <mxCell id="VvckBpr95uDO0CKF_p7v-79" value="PagamentoBoleto&amp;nbsp;" style="swimlane;fontStyle=1;align=center;verticalAlign=top;childLayout=stackLayout;horizontal=1;startSize=30;horizontalStack=0;resizeParent=1;resizeParentMax=0;resizeLast=0;collapsible=1;marginBottom=0;whiteSpace=wrap;html=1;" vertex="1" parent="1">
          <mxGeometry x="315.5" y="1200" width="120" height="64" as="geometry" />
        </mxCell>
        <mxCell id="VvckBpr95uDO0CKF_p7v-80" value="" style="line;strokeWidth=1;fillColor=none;align=left;verticalAlign=middle;spacingTop=-1;spacingLeft=3;spacingRight=3;rotatable=0;labelPosition=right;points=[];portConstraint=eastwest;strokeColor=inherit;" vertex="1" parent="VvckBpr95uDO0CKF_p7v-79">
          <mxGeometry y="30" width="120" height="8" as="geometry" />
        </mxCell>
        <mxCell id="VvckBpr95uDO0CKF_p7v-81" value="+ pagar(valor: float)" style="text;strokeColor=none;fillColor=none;align=left;verticalAlign=top;spacingLeft=4;spacingRight=4;overflow=hidden;rotatable=0;points=[[0,0.5],[1,0.5]];portConstraint=eastwest;whiteSpace=wrap;html=1;" vertex="1" parent="VvckBpr95uDO0CKF_p7v-79">
          <mxGeometry y="38" width="120" height="26" as="geometry" />
        </mxCell>
        <mxCell id="VvckBpr95uDO0CKF_p7v-82" value="PagamentoCartao&amp;nbsp;" style="swimlane;fontStyle=1;align=center;verticalAlign=top;childLayout=stackLayout;horizontal=1;startSize=30;horizontalStack=0;resizeParent=1;resizeParentMax=0;resizeLast=0;collapsible=1;marginBottom=0;whiteSpace=wrap;html=1;" vertex="1" parent="1">
          <mxGeometry x="455.5" y="1200" width="120" height="64" as="geometry" />
        </mxCell>
        <mxCell id="VvckBpr95uDO0CKF_p7v-83" value="" style="line;strokeWidth=1;fillColor=none;align=left;verticalAlign=middle;spacingTop=-1;spacingLeft=3;spacingRight=3;rotatable=0;labelPosition=right;points=[];portConstraint=eastwest;strokeColor=inherit;" vertex="1" parent="VvckBpr95uDO0CKF_p7v-82">
          <mxGeometry y="30" width="120" height="8" as="geometry" />
        </mxCell>
        <mxCell id="VvckBpr95uDO0CKF_p7v-84" value="+ pagar(valor: float)" style="text;strokeColor=none;fillColor=none;align=left;verticalAlign=top;spacingLeft=4;spacingRight=4;overflow=hidden;rotatable=0;points=[[0,0.5],[1,0.5]];portConstraint=eastwest;whiteSpace=wrap;html=1;" vertex="1" parent="VvckBpr95uDO0CKF_p7v-82">
          <mxGeometry y="38" width="120" height="26" as="geometry" />
        </mxCell>
        <mxCell id="VvckBpr95uDO0CKF_p7v-85" value="PagamentoPix&amp;nbsp; &amp;nbsp; &amp;nbsp;&amp;nbsp;" style="swimlane;fontStyle=1;align=center;verticalAlign=top;childLayout=stackLayout;horizontal=1;startSize=30;horizontalStack=0;resizeParent=1;resizeParentMax=0;resizeLast=0;collapsible=1;marginBottom=0;whiteSpace=wrap;html=1;" vertex="1" parent="1">
          <mxGeometry x="595.5" y="1200" width="119" height="64" as="geometry" />
        </mxCell>
        <mxCell id="VvckBpr95uDO0CKF_p7v-86" value="" style="line;strokeWidth=1;fillColor=none;align=left;verticalAlign=middle;spacingTop=-1;spacingLeft=3;spacingRight=3;rotatable=0;labelPosition=right;points=[];portConstraint=eastwest;strokeColor=inherit;" vertex="1" parent="VvckBpr95uDO0CKF_p7v-85">
          <mxGeometry y="30" width="119" height="8" as="geometry" />
        </mxCell>
        <mxCell id="VvckBpr95uDO0CKF_p7v-87" value="+ pagar(valor: float)" style="text;strokeColor=none;fillColor=none;align=left;verticalAlign=top;spacingLeft=4;spacingRight=4;overflow=hidden;rotatable=0;points=[[0,0.5],[1,0.5]];portConstraint=eastwest;whiteSpace=wrap;html=1;" vertex="1" parent="VvckBpr95uDO0CKF_p7v-85">
          <mxGeometry y="38" width="119" height="26" as="geometry" />
        </mxCell>
        <mxCell id="VvckBpr95uDO0CKF_p7v-88" value="" style="endArrow=block;endFill=1;html=1;edgeStyle=orthogonalEdgeStyle;align=left;verticalAlign=top;rounded=0;exitX=0.5;exitY=1;exitDx=0;exitDy=0;entryX=0.5;entryY=0;entryDx=0;entryDy=0;" edge="1" parent="1" source="VvckBpr95uDO0CKF_p7v-47" target="VvckBpr95uDO0CKF_p7v-53">
          <mxGeometry x="-1" relative="1" as="geometry">
            <mxPoint x="300" y="270" as="sourcePoint" />
            <mxPoint x="413" y="220" as="targetPoint" />
          </mxGeometry>
        </mxCell>
        <mxCell id="VvckBpr95uDO0CKF_p7v-89" value="1" style="edgeLabel;resizable=0;html=1;align=left;verticalAlign=bottom;" connectable="0" vertex="1" parent="VvckBpr95uDO0CKF_p7v-88">
          <mxGeometry x="-1" relative="1" as="geometry" />
        </mxCell>
        <mxCell id="VvckBpr95uDO0CKF_p7v-91" value="1" style="edgeLabel;html=1;align=center;verticalAlign=middle;resizable=0;points=[];" vertex="1" connectable="0" parent="VvckBpr95uDO0CKF_p7v-88">
          <mxGeometry x="-0.6878" relative="1" as="geometry">
            <mxPoint as="offset" />
          </mxGeometry>
        </mxCell>
        <mxCell id="VvckBpr95uDO0CKF_p7v-92" value="*" style="edgeLabel;html=1;align=center;verticalAlign=middle;resizable=0;points=[];" vertex="1" connectable="0" parent="VvckBpr95uDO0CKF_p7v-88">
          <mxGeometry x="0.3829" relative="1" as="geometry">
            <mxPoint as="offset" />
          </mxGeometry>
        </mxCell>
        <mxCell id="VvckBpr95uDO0CKF_p7v-93" value="" style="endArrow=block;dashed=1;endFill=0;endSize=12;html=1;rounded=0;exitX=0.5;exitY=0;exitDx=0;exitDy=0;entryX=0.502;entryY=1.05;entryDx=0;entryDy=0;entryPerimeter=0;" edge="1" parent="1" source="VvckBpr95uDO0CKF_p7v-21" target="VvckBpr95uDO0CKF_p7v-54">
          <mxGeometry width="160" relative="1" as="geometry">
            <mxPoint x="390" y="440" as="sourcePoint" />
            <mxPoint x="550" y="440" as="targetPoint" />
          </mxGeometry>
        </mxCell>
        <mxCell id="VvckBpr95uDO0CKF_p7v-103" style="edgeStyle=orthogonalEdgeStyle;rounded=0;orthogonalLoop=1;jettySize=auto;html=1;exitX=0;exitY=0.5;exitDx=0;exitDy=0;entryX=0.75;entryY=0;entryDx=0;entryDy=0;" edge="1" parent="1" source="VvckBpr95uDO0CKF_p7v-94" target="VvckBpr95uDO0CKF_p7v-38">
          <mxGeometry relative="1" as="geometry">
            <mxPoint x="250" y="630" as="targetPoint" />
          </mxGeometry>
        </mxCell>
        <mxCell id="VvckBpr95uDO0CKF_p7v-104" value="1" style="edgeLabel;html=1;align=center;verticalAlign=middle;resizable=0;points=[];" vertex="1" connectable="0" parent="VvckBpr95uDO0CKF_p7v-103">
          <mxGeometry x="-0.8315" y="-2" relative="1" as="geometry">
            <mxPoint as="offset" />
          </mxGeometry>
        </mxCell>
        <mxCell id="VvckBpr95uDO0CKF_p7v-105" value="1" style="edgeLabel;html=1;align=center;verticalAlign=middle;resizable=0;points=[];" vertex="1" connectable="0" parent="VvckBpr95uDO0CKF_p7v-103">
          <mxGeometry x="0.7263" y="2" relative="1" as="geometry">
            <mxPoint y="-6" as="offset" />
          </mxGeometry>
        </mxCell>
        <mxCell id="VvckBpr95uDO0CKF_p7v-108" value="" style="endArrow=block;endFill=1;html=1;edgeStyle=orthogonalEdgeStyle;align=left;verticalAlign=top;rounded=0;entryX=0.5;entryY=0;entryDx=0;entryDy=0;" edge="1" parent="1" target="VvckBpr95uDO0CKF_p7v-29">
          <mxGeometry x="-1" relative="1" as="geometry">
            <mxPoint x="225" y="700" as="sourcePoint" />
            <mxPoint x="350" y="750" as="targetPoint" />
          </mxGeometry>
        </mxCell>
        <mxCell id="VvckBpr95uDO0CKF_p7v-110" value="*" style="edgeLabel;html=1;align=center;verticalAlign=middle;resizable=0;points=[];" vertex="1" connectable="0" parent="VvckBpr95uDO0CKF_p7v-108">
          <mxGeometry x="-0.6659" relative="1" as="geometry">
            <mxPoint as="offset" />
          </mxGeometry>
        </mxCell>
        <mxCell id="VvckBpr95uDO0CKF_p7v-111" value="*" style="edgeLabel;html=1;align=center;verticalAlign=middle;resizable=0;points=[];" vertex="1" connectable="0" parent="VvckBpr95uDO0CKF_p7v-108">
          <mxGeometry x="0.2365" y="2" relative="1" as="geometry">
            <mxPoint as="offset" />
          </mxGeometry>
        </mxCell>
        <mxCell id="VvckBpr95uDO0CKF_p7v-112" value="Catalogo&lt;div&gt;&lt;br&gt;&lt;/div&gt;" style="swimlane;fontStyle=1;align=center;verticalAlign=top;childLayout=stackLayout;horizontal=1;startSize=26;horizontalStack=0;resizeParent=1;resizeParentMax=0;resizeLast=0;collapsible=1;marginBottom=0;whiteSpace=wrap;html=1;" vertex="1" parent="1">
          <mxGeometry x="350" y="560" width="330" height="216" as="geometry" />
        </mxCell>
        <mxCell id="VvckBpr95uDO0CKF_p7v-113" value="-produtos: List&amp;lt;Produto&amp;gt;" style="text;strokeColor=none;fillColor=none;align=left;verticalAlign=top;spacingLeft=4;spacingRight=4;overflow=hidden;rotatable=0;points=[[0,0.5],[1,0.5]];portConstraint=eastwest;whiteSpace=wrap;html=1;" vertex="1" parent="VvckBpr95uDO0CKF_p7v-112">
          <mxGeometry y="26" width="330" height="26" as="geometry" />
        </mxCell>
        <mxCell id="VvckBpr95uDO0CKF_p7v-117" value="" style="line;strokeWidth=1;fillColor=none;align=left;verticalAlign=middle;spacingTop=-1;spacingLeft=3;spacingRight=3;rotatable=0;labelPosition=right;points=[];portConstraint=eastwest;strokeColor=inherit;" vertex="1" parent="VvckBpr95uDO0CKF_p7v-112">
          <mxGeometry y="52" width="330" height="8" as="geometry" />
        </mxCell>
        <mxCell id="VvckBpr95uDO0CKF_p7v-118" value="+getProdutos() List&amp;lt;Produto&amp;gt;" style="text;strokeColor=none;fillColor=none;align=left;verticalAlign=top;spacingLeft=4;spacingRight=4;overflow=hidden;rotatable=0;points=[[0,0.5],[1,0.5]];portConstraint=eastwest;whiteSpace=wrap;html=1;" vertex="1" parent="VvckBpr95uDO0CKF_p7v-112">
          <mxGeometry y="60" width="330" height="26" as="geometry" />
        </mxCell>
        <mxCell id="VvckBpr95uDO0CKF_p7v-119" value="+buscarProduto(id: int) Produto" style="text;strokeColor=none;fillColor=none;align=left;verticalAlign=top;spacingLeft=4;spacingRight=4;overflow=hidden;rotatable=0;points=[[0,0.5],[1,0.5]];portConstraint=eastwest;whiteSpace=wrap;html=1;" vertex="1" parent="VvckBpr95uDO0CKF_p7v-112">
          <mxGeometry y="86" width="330" height="26" as="geometry" />
        </mxCell>
        <mxCell id="VvckBpr95uDO0CKF_p7v-120" value="+filtrarProdutos(criterio: String)" style="text;strokeColor=none;fillColor=none;align=left;verticalAlign=top;spacingLeft=4;spacingRight=4;overflow=hidden;rotatable=0;points=[[0,0.5],[1,0.5]];portConstraint=eastwest;whiteSpace=wrap;html=1;" vertex="1" parent="VvckBpr95uDO0CKF_p7v-112">
          <mxGeometry y="112" width="330" height="26" as="geometry" />
        </mxCell>
        <mxCell id="VvckBpr95uDO0CKF_p7v-116" value="+adicionarProduto(produto: Produto)" style="text;strokeColor=none;fillColor=none;align=left;verticalAlign=top;spacingLeft=4;spacingRight=4;overflow=hidden;rotatable=0;points=[[0,0.5],[1,0.5]];portConstraint=eastwest;whiteSpace=wrap;html=1;" vertex="1" parent="VvckBpr95uDO0CKF_p7v-112">
          <mxGeometry y="138" width="330" height="26" as="geometry" />
        </mxCell>
        <mxCell id="VvckBpr95uDO0CKF_p7v-115" value="+removerProduto(produto: Produto)" style="text;strokeColor=none;fillColor=none;align=left;verticalAlign=top;spacingLeft=4;spacingRight=4;overflow=hidden;rotatable=0;points=[[0,0.5],[1,0.5]];portConstraint=eastwest;whiteSpace=wrap;html=1;" vertex="1" parent="VvckBpr95uDO0CKF_p7v-112">
          <mxGeometry y="164" width="330" height="26" as="geometry" />
        </mxCell>
        <mxCell id="VvckBpr95uDO0CKF_p7v-114" value="+visualizarProduto(id: int) Produto" style="text;strokeColor=none;fillColor=none;align=left;verticalAlign=top;spacingLeft=4;spacingRight=4;overflow=hidden;rotatable=0;points=[[0,0.5],[1,0.5]];portConstraint=eastwest;whiteSpace=wrap;html=1;" vertex="1" parent="VvckBpr95uDO0CKF_p7v-112">
          <mxGeometry y="190" width="330" height="26" as="geometry" />
        </mxCell>
        <mxCell id="VvckBpr95uDO0CKF_p7v-121" style="edgeStyle=orthogonalEdgeStyle;rounded=0;orthogonalLoop=1;jettySize=auto;html=1;exitX=1;exitY=0.5;exitDx=0;exitDy=0;entryX=0.75;entryY=0;entryDx=0;entryDy=0;" edge="1" parent="1" source="VvckBpr95uDO0CKF_p7v-94" target="VvckBpr95uDO0CKF_p7v-112">
          <mxGeometry relative="1" as="geometry" />
        </mxCell>
        <mxCell id="VvckBpr95uDO0CKF_p7v-123" value="1" style="edgeLabel;html=1;align=center;verticalAlign=middle;resizable=0;points=[];" vertex="1" connectable="0" parent="VvckBpr95uDO0CKF_p7v-121">
          <mxGeometry x="0.7267" y="-2" relative="1" as="geometry">
            <mxPoint as="offset" />
          </mxGeometry>
        </mxCell>
        <mxCell id="VvckBpr95uDO0CKF_p7v-125" value="*" style="edgeLabel;html=1;align=center;verticalAlign=middle;resizable=0;points=[];" vertex="1" connectable="0" parent="VvckBpr95uDO0CKF_p7v-121">
          <mxGeometry x="-0.6552" y="1" relative="1" as="geometry">
            <mxPoint x="-12" y="4" as="offset" />
          </mxGeometry>
        </mxCell>
        <mxCell id="VvckBpr95uDO0CKF_p7v-124" style="edgeStyle=orthogonalEdgeStyle;rounded=0;orthogonalLoop=1;jettySize=auto;html=1;exitX=0;exitY=0.5;exitDx=0;exitDy=0;entryX=1;entryY=0.5;entryDx=0;entryDy=0;" edge="1" parent="1" source="VvckBpr95uDO0CKF_p7v-115" target="VvckBpr95uDO0CKF_p7v-30">
          <mxGeometry relative="1" as="geometry" />
        </mxCell>
        <mxCell id="VvckBpr95uDO0CKF_p7v-126" value="1" style="edgeLabel;html=1;align=center;verticalAlign=middle;resizable=0;points=[];" vertex="1" connectable="0" parent="VvckBpr95uDO0CKF_p7v-124">
          <mxGeometry x="-0.8106" y="-1" relative="1" as="geometry">
            <mxPoint as="offset" />
          </mxGeometry>
        </mxCell>
        <mxCell id="VvckBpr95uDO0CKF_p7v-127" value="*" style="edgeLabel;html=1;align=center;verticalAlign=middle;resizable=0;points=[];" vertex="1" connectable="0" parent="VvckBpr95uDO0CKF_p7v-124">
          <mxGeometry x="0.6212" relative="1" as="geometry">
            <mxPoint as="offset" />
          </mxGeometry>
        </mxCell>
        <mxCell id="VvckBpr95uDO0CKF_p7v-128" style="edgeStyle=orthogonalEdgeStyle;rounded=0;orthogonalLoop=1;jettySize=auto;html=1;exitX=1;exitY=0.5;exitDx=0;exitDy=0;entryX=1;entryY=0.5;entryDx=0;entryDy=0;" edge="1" parent="1" source="VvckBpr95uDO0CKF_p7v-24" target="VvckBpr95uDO0CKF_p7v-58">
          <mxGeometry relative="1" as="geometry" />
        </mxCell>
        <mxCell id="VvckBpr95uDO0CKF_p7v-129" value="1" style="edgeLabel;html=1;align=center;verticalAlign=middle;resizable=0;points=[];" vertex="1" connectable="0" parent="VvckBpr95uDO0CKF_p7v-128">
          <mxGeometry x="-0.9377" relative="1" as="geometry">
            <mxPoint as="offset" />
          </mxGeometry>
        </mxCell>
        <mxCell id="VvckBpr95uDO0CKF_p7v-130" value="*" style="edgeLabel;html=1;align=center;verticalAlign=middle;resizable=0;points=[];" vertex="1" connectable="0" parent="VvckBpr95uDO0CKF_p7v-128">
          <mxGeometry x="0.8858" y="1" relative="1" as="geometry">
            <mxPoint as="offset" />
          </mxGeometry>
        </mxCell>
        <mxCell id="VvckBpr95uDO0CKF_p7v-131" style="edgeStyle=orthogonalEdgeStyle;rounded=0;orthogonalLoop=1;jettySize=auto;html=1;exitX=1;exitY=0.5;exitDx=0;exitDy=0;entryX=0;entryY=0.5;entryDx=0;entryDy=0;" edge="1" parent="1" source="VvckBpr95uDO0CKF_p7v-98" target="VvckBpr95uDO0CKF_p7v-58">
          <mxGeometry relative="1" as="geometry" />
        </mxCell>
        <mxCell id="VvckBpr95uDO0CKF_p7v-132" value="1" style="edgeLabel;html=1;align=center;verticalAlign=middle;resizable=0;points=[];" vertex="1" connectable="0" parent="VvckBpr95uDO0CKF_p7v-131">
          <mxGeometry x="0.8304" relative="1" as="geometry">
            <mxPoint as="offset" />
          </mxGeometry>
        </mxCell>
        <mxCell id="VvckBpr95uDO0CKF_p7v-133" value="1" style="edgeLabel;html=1;align=center;verticalAlign=middle;resizable=0;points=[];" vertex="1" connectable="0" parent="VvckBpr95uDO0CKF_p7v-131">
          <mxGeometry x="-0.8839" y="2" relative="1" as="geometry">
            <mxPoint as="offset" />
          </mxGeometry>
        </mxCell>
        <mxCell id="VvckBpr95uDO0CKF_p7v-134" value="" style="endArrow=block;endFill=1;html=1;edgeStyle=orthogonalEdgeStyle;align=left;verticalAlign=top;rounded=0;" edge="1" parent="1">
          <mxGeometry x="-1" relative="1" as="geometry">
            <mxPoint x="515.16" y="1040" as="sourcePoint" />
            <mxPoint x="515.16" y="1090" as="targetPoint" />
            <mxPoint as="offset" />
          </mxGeometry>
        </mxCell>
        <mxCell id="VvckBpr95uDO0CKF_p7v-136" value="" style="endArrow=block;dashed=1;endFill=0;endSize=12;html=1;rounded=0;exitX=0.5;exitY=0;exitDx=0;exitDy=0;entryX=0.312;entryY=1.037;entryDx=0;entryDy=0;entryPerimeter=0;" edge="1" parent="1" source="VvckBpr95uDO0CKF_p7v-79" target="VvckBpr95uDO0CKF_p7v-75">
          <mxGeometry width="160" relative="1" as="geometry">
            <mxPoint x="430" y="1170" as="sourcePoint" />
            <mxPoint x="590" y="1170" as="targetPoint" />
          </mxGeometry>
        </mxCell>
        <mxCell id="VvckBpr95uDO0CKF_p7v-137" value="" style="endArrow=block;dashed=1;endFill=0;endSize=12;html=1;rounded=0;exitX=0.5;exitY=0;exitDx=0;exitDy=0;entryX=0.684;entryY=1.011;entryDx=0;entryDy=0;entryPerimeter=0;" edge="1" parent="1" source="VvckBpr95uDO0CKF_p7v-85" target="VvckBpr95uDO0CKF_p7v-75">
          <mxGeometry width="160" relative="1" as="geometry">
            <mxPoint x="386" y="1210" as="sourcePoint" />
            <mxPoint x="463" y="1175" as="targetPoint" />
          </mxGeometry>
        </mxCell>
        <mxCell id="VvckBpr95uDO0CKF_p7v-138" value="" style="endArrow=block;dashed=1;endFill=0;endSize=12;html=1;rounded=0;exitX=0.5;exitY=0;exitDx=0;exitDy=0;entryX=0.503;entryY=1.011;entryDx=0;entryDy=0;entryPerimeter=0;" edge="1" parent="1" source="VvckBpr95uDO0CKF_p7v-82" target="VvckBpr95uDO0CKF_p7v-75">
          <mxGeometry width="160" relative="1" as="geometry">
            <mxPoint x="396" y="1220" as="sourcePoint" />
            <mxPoint x="473" y="1185" as="targetPoint" />
          </mxGeometry>
        </mxCell>
      </root>
    </mxGraphModel>
  </diagram>
</mxfile>
